<mxfile host="app.diagrams.net" modified="2024-04-26T01:46:50.802Z" agent="Mozilla/5.0 (Windows NT 10.0; Win64; x64) AppleWebKit/537.36 (KHTML, like Gecko) Chrome/124.0.0.0 Safari/537.36" etag="o-7yPdFi4r3IhAwCD6ez" version="24.3.0" type="device">
  <diagram name="Página-1" id="8_VudEdwx_m8_PZz2E9i">
    <mxGraphModel dx="2185" dy="1170" grid="1" gridSize="10" guides="1" tooltips="1" connect="1" arrows="1" fold="1" page="1" pageScale="1" pageWidth="827" pageHeight="1169" math="0" shadow="0">
      <root>
        <mxCell id="0" />
        <mxCell id="1" parent="0" />
        <mxCell id="j6mt6SIDiqW9d804oy0L-1" value="&lt;p style=&quot;margin:0px;margin-top:4px;text-align:center;&quot;&gt;Animal&lt;/p&gt;&lt;hr size=&quot;1&quot; style=&quot;border-style:solid;&quot;&gt;&lt;p style=&quot;margin:0px;margin-left:4px;&quot;&gt;- nombre : Águila string&lt;/p&gt;&lt;p style=&quot;margin:0px;margin-left:4px;&quot;&gt;- energía : int&lt;/p&gt;&lt;p style=&quot;margin:0px;margin-left:4px;&quot;&gt;- hambre : bool&lt;/p&gt;&lt;hr size=&quot;1&quot; style=&quot;border-style:solid;&quot;&gt;&lt;p style=&quot;margin:0px;margin-left:4px;&quot;&gt;&lt;span style=&quot;background-color: initial;&quot;&gt;+ cazar ()&lt;/span&gt;&lt;br&gt;&lt;/p&gt;&lt;p style=&quot;margin:0px;margin-left:4px;&quot;&gt;+ volar ()&lt;/p&gt;&lt;p style=&quot;margin:0px;margin-left:4px;&quot;&gt;+ comer ()&lt;/p&gt;&lt;p style=&quot;margin:0px;margin-left:4px;&quot;&gt;+ dormir ()&lt;/p&gt;&lt;p style=&quot;margin:0px;margin-left:4px;&quot;&gt;+ getPresa () : bool&lt;/p&gt;" style="verticalAlign=top;align=left;overflow=fill;html=1;whiteSpace=wrap;" vertex="1" parent="1">
          <mxGeometry x="40" y="20" width="210" height="290" as="geometry" />
        </mxCell>
        <mxCell id="j6mt6SIDiqW9d804oy0L-63" value="" style="edgeStyle=orthogonalEdgeStyle;rounded=0;orthogonalLoop=1;jettySize=auto;html=1;" edge="1" parent="1" source="j6mt6SIDiqW9d804oy0L-59">
          <mxGeometry relative="1" as="geometry">
            <mxPoint x="370" y="135" as="targetPoint" />
          </mxGeometry>
        </mxCell>
        <mxCell id="j6mt6SIDiqW9d804oy0L-59" value="dormir ()" style="ellipse;whiteSpace=wrap;html=1;" vertex="1" parent="1">
          <mxGeometry x="310" y="20" width="120" height="80" as="geometry" />
        </mxCell>
        <mxCell id="j6mt6SIDiqW9d804oy0L-65" value="" style="edgeStyle=orthogonalEdgeStyle;rounded=0;orthogonalLoop=1;jettySize=auto;html=1;" edge="1" parent="1">
          <mxGeometry relative="1" as="geometry">
            <mxPoint x="370" y="195" as="sourcePoint" />
            <mxPoint x="370" y="250" as="targetPoint" />
          </mxGeometry>
        </mxCell>
        <mxCell id="j6mt6SIDiqW9d804oy0L-72" value="Fin" style="ellipse;whiteSpace=wrap;html=1;" vertex="1" parent="1">
          <mxGeometry x="310" y="620" width="120" height="80" as="geometry" />
        </mxCell>
        <mxCell id="j6mt6SIDiqW9d804oy0L-124" value="" style="edgeStyle=orthogonalEdgeStyle;rounded=0;orthogonalLoop=1;jettySize=auto;html=1;" edge="1" parent="1" source="j6mt6SIDiqW9d804oy0L-73" target="j6mt6SIDiqW9d804oy0L-123">
          <mxGeometry relative="1" as="geometry" />
        </mxCell>
        <mxCell id="j6mt6SIDiqW9d804oy0L-73" value="energia = energia + 100" style="rounded=0;whiteSpace=wrap;html=1;" vertex="1" parent="1">
          <mxGeometry x="310" y="250" width="120" height="60" as="geometry" />
        </mxCell>
        <mxCell id="j6mt6SIDiqW9d804oy0L-91" value="" style="edgeStyle=orthogonalEdgeStyle;rounded=0;orthogonalLoop=1;jettySize=auto;html=1;" edge="1" parent="1" source="j6mt6SIDiqW9d804oy0L-92">
          <mxGeometry relative="1" as="geometry">
            <mxPoint x="630" y="135" as="targetPoint" />
          </mxGeometry>
        </mxCell>
        <mxCell id="j6mt6SIDiqW9d804oy0L-92" value="volar ()" style="ellipse;whiteSpace=wrap;html=1;" vertex="1" parent="1">
          <mxGeometry x="570" y="20" width="120" height="80" as="geometry" />
        </mxCell>
        <mxCell id="j6mt6SIDiqW9d804oy0L-93" value="" style="edgeStyle=orthogonalEdgeStyle;rounded=0;orthogonalLoop=1;jettySize=auto;html=1;" edge="1" parent="1" target="j6mt6SIDiqW9d804oy0L-99">
          <mxGeometry relative="1" as="geometry">
            <mxPoint x="630" y="195" as="sourcePoint" />
          </mxGeometry>
        </mxCell>
        <mxCell id="j6mt6SIDiqW9d804oy0L-95" value="" style="edgeStyle=orthogonalEdgeStyle;rounded=0;orthogonalLoop=1;jettySize=auto;html=1;entryX=0;entryY=0.5;entryDx=0;entryDy=0;" edge="1" parent="1" target="j6mt6SIDiqW9d804oy0L-100">
          <mxGeometry relative="1" as="geometry">
            <mxPoint x="583.9999999999998" y="289.9999999999998" as="sourcePoint" />
            <mxPoint x="524" y="480" as="targetPoint" />
            <Array as="points">
              <mxPoint x="530" y="290" />
              <mxPoint x="530" y="660" />
            </Array>
          </mxGeometry>
        </mxCell>
        <mxCell id="j6mt6SIDiqW9d804oy0L-96" value="False" style="edgeLabel;html=1;align=center;verticalAlign=middle;resizable=0;points=[];" vertex="1" connectable="0" parent="j6mt6SIDiqW9d804oy0L-95">
          <mxGeometry x="-0.6481" y="-3" relative="1" as="geometry">
            <mxPoint as="offset" />
          </mxGeometry>
        </mxCell>
        <mxCell id="j6mt6SIDiqW9d804oy0L-97" value="" style="edgeStyle=orthogonalEdgeStyle;rounded=0;orthogonalLoop=1;jettySize=auto;html=1;" edge="1" parent="1" source="j6mt6SIDiqW9d804oy0L-99">
          <mxGeometry relative="1" as="geometry">
            <mxPoint x="749.9999999999998" y="380" as="targetPoint" />
          </mxGeometry>
        </mxCell>
        <mxCell id="j6mt6SIDiqW9d804oy0L-98" value="True" style="edgeLabel;html=1;align=center;verticalAlign=middle;resizable=0;points=[];" vertex="1" connectable="0" parent="j6mt6SIDiqW9d804oy0L-97">
          <mxGeometry x="-0.7103" y="-1" relative="1" as="geometry">
            <mxPoint as="offset" />
          </mxGeometry>
        </mxCell>
        <mxCell id="j6mt6SIDiqW9d804oy0L-99" value="energia &amp;gt; 10" style="rhombus;whiteSpace=wrap;html=1;" vertex="1" parent="1">
          <mxGeometry x="580" y="250" width="100" height="80" as="geometry" />
        </mxCell>
        <mxCell id="j6mt6SIDiqW9d804oy0L-100" value="Fin" style="ellipse;whiteSpace=wrap;html=1;" vertex="1" parent="1">
          <mxGeometry x="570" y="620" width="120" height="80" as="geometry" />
        </mxCell>
        <mxCell id="j6mt6SIDiqW9d804oy0L-127" value="" style="edgeStyle=orthogonalEdgeStyle;rounded=0;orthogonalLoop=1;jettySize=auto;html=1;" edge="1" parent="1">
          <mxGeometry relative="1" as="geometry">
            <mxPoint x="750" y="440" as="sourcePoint" />
            <mxPoint x="750" y="510" as="targetPoint" />
          </mxGeometry>
        </mxCell>
        <mxCell id="j6mt6SIDiqW9d804oy0L-102" value="&amp;nbsp;energia = energia - 10" style="rounded=0;whiteSpace=wrap;html=1;" vertex="1" parent="1">
          <mxGeometry x="640" y="380" width="120" height="60" as="geometry" />
        </mxCell>
        <mxCell id="j6mt6SIDiqW9d804oy0L-149" style="edgeStyle=orthogonalEdgeStyle;rounded=0;orthogonalLoop=1;jettySize=auto;html=1;entryX=0.5;entryY=0;entryDx=0;entryDy=0;" edge="1" parent="1" source="j6mt6SIDiqW9d804oy0L-104" target="j6mt6SIDiqW9d804oy0L-121">
          <mxGeometry relative="1" as="geometry" />
        </mxCell>
        <mxCell id="j6mt6SIDiqW9d804oy0L-104" value="cazar ()" style="ellipse;whiteSpace=wrap;html=1;" vertex="1" parent="1">
          <mxGeometry x="890" y="20" width="120" height="80" as="geometry" />
        </mxCell>
        <mxCell id="j6mt6SIDiqW9d804oy0L-105" value="" style="edgeStyle=orthogonalEdgeStyle;rounded=0;orthogonalLoop=1;jettySize=auto;html=1;" edge="1" parent="1" target="j6mt6SIDiqW9d804oy0L-111">
          <mxGeometry relative="1" as="geometry">
            <mxPoint x="950" y="195" as="sourcePoint" />
          </mxGeometry>
        </mxCell>
        <mxCell id="j6mt6SIDiqW9d804oy0L-107" value="" style="edgeStyle=orthogonalEdgeStyle;rounded=0;orthogonalLoop=1;jettySize=auto;html=1;entryX=0;entryY=0.5;entryDx=0;entryDy=0;" edge="1" parent="1" target="j6mt6SIDiqW9d804oy0L-112">
          <mxGeometry relative="1" as="geometry">
            <mxPoint x="923.9999999999998" y="289.9999999999998" as="sourcePoint" />
            <mxPoint x="864" y="480" as="targetPoint" />
            <Array as="points">
              <mxPoint x="870" y="290" />
              <mxPoint x="870" y="660" />
            </Array>
          </mxGeometry>
        </mxCell>
        <mxCell id="j6mt6SIDiqW9d804oy0L-108" value="True" style="edgeLabel;html=1;align=center;verticalAlign=middle;resizable=0;points=[];" vertex="1" connectable="0" parent="j6mt6SIDiqW9d804oy0L-107">
          <mxGeometry x="-0.6481" y="-3" relative="1" as="geometry">
            <mxPoint as="offset" />
          </mxGeometry>
        </mxCell>
        <mxCell id="j6mt6SIDiqW9d804oy0L-109" value="" style="edgeStyle=orthogonalEdgeStyle;rounded=0;orthogonalLoop=1;jettySize=auto;html=1;" edge="1" parent="1" source="j6mt6SIDiqW9d804oy0L-111">
          <mxGeometry relative="1" as="geometry">
            <mxPoint x="1069.9999999999998" y="380" as="targetPoint" />
          </mxGeometry>
        </mxCell>
        <mxCell id="j6mt6SIDiqW9d804oy0L-110" value="False" style="edgeLabel;html=1;align=center;verticalAlign=middle;resizable=0;points=[];" vertex="1" connectable="0" parent="j6mt6SIDiqW9d804oy0L-109">
          <mxGeometry x="-0.7103" y="-1" relative="1" as="geometry">
            <mxPoint as="offset" />
          </mxGeometry>
        </mxCell>
        <mxCell id="j6mt6SIDiqW9d804oy0L-111" value="getPresa ()" style="rhombus;whiteSpace=wrap;html=1;" vertex="1" parent="1">
          <mxGeometry x="900" y="250" width="100" height="80" as="geometry" />
        </mxCell>
        <mxCell id="j6mt6SIDiqW9d804oy0L-112" value="Fin" style="ellipse;whiteSpace=wrap;html=1;" vertex="1" parent="1">
          <mxGeometry x="890" y="620" width="120" height="80" as="geometry" />
        </mxCell>
        <mxCell id="j6mt6SIDiqW9d804oy0L-151" style="edgeStyle=orthogonalEdgeStyle;rounded=0;orthogonalLoop=1;jettySize=auto;html=1;entryX=0.5;entryY=1;entryDx=0;entryDy=0;" edge="1" parent="1" source="j6mt6SIDiqW9d804oy0L-114" target="j6mt6SIDiqW9d804oy0L-111">
          <mxGeometry relative="1" as="geometry" />
        </mxCell>
        <mxCell id="j6mt6SIDiqW9d804oy0L-114" value="volar ()" style="rounded=0;whiteSpace=wrap;html=1;" vertex="1" parent="1">
          <mxGeometry x="1010" y="380" width="120" height="60" as="geometry" />
        </mxCell>
        <mxCell id="j6mt6SIDiqW9d804oy0L-119" value="getEnergia()" style="shape=parallelogram;perimeter=parallelogramPerimeter;whiteSpace=wrap;html=1;fixedSize=1;" vertex="1" parent="1">
          <mxGeometry x="310" y="135" width="120" height="60" as="geometry" />
        </mxCell>
        <mxCell id="j6mt6SIDiqW9d804oy0L-120" value="getEnergia()" style="shape=parallelogram;perimeter=parallelogramPerimeter;whiteSpace=wrap;html=1;fixedSize=1;" vertex="1" parent="1">
          <mxGeometry x="570" y="135" width="120" height="60" as="geometry" />
        </mxCell>
        <mxCell id="j6mt6SIDiqW9d804oy0L-121" value="getEnergia()" style="shape=parallelogram;perimeter=parallelogramPerimeter;whiteSpace=wrap;html=1;fixedSize=1;" vertex="1" parent="1">
          <mxGeometry x="890" y="130" width="120" height="60" as="geometry" />
        </mxCell>
        <mxCell id="j6mt6SIDiqW9d804oy0L-148" style="edgeStyle=orthogonalEdgeStyle;rounded=0;orthogonalLoop=1;jettySize=auto;html=1;entryX=0.5;entryY=0;entryDx=0;entryDy=0;exitX=0.461;exitY=0.859;exitDx=0;exitDy=0;exitPerimeter=0;" edge="1" parent="1" source="j6mt6SIDiqW9d804oy0L-123" target="j6mt6SIDiqW9d804oy0L-72">
          <mxGeometry relative="1" as="geometry">
            <Array as="points">
              <mxPoint x="370" y="510" />
            </Array>
          </mxGeometry>
        </mxCell>
        <mxCell id="j6mt6SIDiqW9d804oy0L-123" value="energiaActual = energia" style="shape=document;whiteSpace=wrap;html=1;boundedLbl=1;rounded=0;" vertex="1" parent="1">
          <mxGeometry x="310" y="450" width="120" height="70" as="geometry" />
        </mxCell>
        <mxCell id="j6mt6SIDiqW9d804oy0L-126" value="energiaActual = energia" style="shape=document;whiteSpace=wrap;html=1;boundedLbl=1;rounded=0;" vertex="1" parent="1">
          <mxGeometry x="640" y="510" width="120" height="80" as="geometry" />
        </mxCell>
        <mxCell id="j6mt6SIDiqW9d804oy0L-134" value="" style="edgeStyle=orthogonalEdgeStyle;rounded=0;orthogonalLoop=1;jettySize=auto;html=1;" edge="1" parent="1" source="j6mt6SIDiqW9d804oy0L-135">
          <mxGeometry relative="1" as="geometry">
            <mxPoint x="1330" y="135" as="targetPoint" />
          </mxGeometry>
        </mxCell>
        <mxCell id="j6mt6SIDiqW9d804oy0L-135" value="comer ()" style="ellipse;whiteSpace=wrap;html=1;" vertex="1" parent="1">
          <mxGeometry x="1270" y="20" width="120" height="80" as="geometry" />
        </mxCell>
        <mxCell id="j6mt6SIDiqW9d804oy0L-136" value="" style="edgeStyle=orthogonalEdgeStyle;rounded=0;orthogonalLoop=1;jettySize=auto;html=1;" edge="1" parent="1" target="j6mt6SIDiqW9d804oy0L-141">
          <mxGeometry relative="1" as="geometry">
            <mxPoint x="1330" y="195" as="sourcePoint" />
          </mxGeometry>
        </mxCell>
        <mxCell id="j6mt6SIDiqW9d804oy0L-154" style="edgeStyle=orthogonalEdgeStyle;rounded=0;orthogonalLoop=1;jettySize=auto;html=1;exitX=0;exitY=0.5;exitDx=0;exitDy=0;entryX=0;entryY=0.5;entryDx=0;entryDy=0;" edge="1" parent="1" source="j6mt6SIDiqW9d804oy0L-141" target="j6mt6SIDiqW9d804oy0L-142">
          <mxGeometry relative="1" as="geometry">
            <mxPoint x="1240" y="660" as="targetPoint" />
            <Array as="points">
              <mxPoint x="1220" y="290" />
              <mxPoint x="1220" y="660" />
            </Array>
          </mxGeometry>
        </mxCell>
        <mxCell id="j6mt6SIDiqW9d804oy0L-155" value="False" style="edgeLabel;html=1;align=center;verticalAlign=middle;resizable=0;points=[];" vertex="1" connectable="0" parent="j6mt6SIDiqW9d804oy0L-154">
          <mxGeometry x="-0.8729" y="1" relative="1" as="geometry">
            <mxPoint x="-1" as="offset" />
          </mxGeometry>
        </mxCell>
        <mxCell id="j6mt6SIDiqW9d804oy0L-157" value="" style="edgeStyle=orthogonalEdgeStyle;rounded=0;orthogonalLoop=1;jettySize=auto;html=1;" edge="1" parent="1" source="j6mt6SIDiqW9d804oy0L-141" target="j6mt6SIDiqW9d804oy0L-156">
          <mxGeometry relative="1" as="geometry" />
        </mxCell>
        <mxCell id="j6mt6SIDiqW9d804oy0L-158" value="true" style="edgeLabel;html=1;align=center;verticalAlign=middle;resizable=0;points=[];" vertex="1" connectable="0" parent="j6mt6SIDiqW9d804oy0L-157">
          <mxGeometry x="-0.1688" y="4" relative="1" as="geometry">
            <mxPoint x="-1" as="offset" />
          </mxGeometry>
        </mxCell>
        <mxCell id="j6mt6SIDiqW9d804oy0L-141" value="hambre" style="rhombus;whiteSpace=wrap;html=1;" vertex="1" parent="1">
          <mxGeometry x="1280" y="250" width="100" height="80" as="geometry" />
        </mxCell>
        <mxCell id="j6mt6SIDiqW9d804oy0L-142" value="Fin" style="ellipse;whiteSpace=wrap;html=1;" vertex="1" parent="1">
          <mxGeometry x="1270" y="620" width="120" height="80" as="geometry" />
        </mxCell>
        <mxCell id="j6mt6SIDiqW9d804oy0L-169" style="edgeStyle=orthogonalEdgeStyle;rounded=0;orthogonalLoop=1;jettySize=auto;html=1;exitX=0.5;exitY=1;exitDx=0;exitDy=0;entryX=0.5;entryY=0;entryDx=0;entryDy=0;" edge="1" parent="1" source="j6mt6SIDiqW9d804oy0L-144" target="j6mt6SIDiqW9d804oy0L-146">
          <mxGeometry relative="1" as="geometry" />
        </mxCell>
        <mxCell id="j6mt6SIDiqW9d804oy0L-144" value="&amp;nbsp;energia = energia + 50" style="rounded=0;whiteSpace=wrap;html=1;" vertex="1" parent="1">
          <mxGeometry x="1450" y="510" width="120" height="60" as="geometry" />
        </mxCell>
        <mxCell id="j6mt6SIDiqW9d804oy0L-145" value="getHambre()" style="shape=parallelogram;perimeter=parallelogramPerimeter;whiteSpace=wrap;html=1;fixedSize=1;" vertex="1" parent="1">
          <mxGeometry x="1270" y="130" width="120" height="60" as="geometry" />
        </mxCell>
        <mxCell id="j6mt6SIDiqW9d804oy0L-170" style="edgeStyle=orthogonalEdgeStyle;rounded=0;orthogonalLoop=1;jettySize=auto;html=1;exitX=0;exitY=0.5;exitDx=0;exitDy=0;entryX=1;entryY=0.5;entryDx=0;entryDy=0;" edge="1" parent="1" source="j6mt6SIDiqW9d804oy0L-146" target="j6mt6SIDiqW9d804oy0L-142">
          <mxGeometry relative="1" as="geometry" />
        </mxCell>
        <mxCell id="j6mt6SIDiqW9d804oy0L-146" value="energiaActual = energia" style="shape=document;whiteSpace=wrap;html=1;boundedLbl=1;rounded=0;" vertex="1" parent="1">
          <mxGeometry x="1450" y="620" width="120" height="80" as="geometry" />
        </mxCell>
        <mxCell id="j6mt6SIDiqW9d804oy0L-150" style="edgeStyle=orthogonalEdgeStyle;rounded=0;orthogonalLoop=1;jettySize=auto;html=1;entryX=1.012;entryY=0.585;entryDx=0;entryDy=0;entryPerimeter=0;exitX=0.649;exitY=0.726;exitDx=0;exitDy=0;exitPerimeter=0;" edge="1" parent="1" source="j6mt6SIDiqW9d804oy0L-126" target="j6mt6SIDiqW9d804oy0L-100">
          <mxGeometry relative="1" as="geometry">
            <Array as="points">
              <mxPoint x="720" y="568" />
              <mxPoint x="720" y="667" />
            </Array>
          </mxGeometry>
        </mxCell>
        <mxCell id="j6mt6SIDiqW9d804oy0L-160" value="" style="edgeStyle=orthogonalEdgeStyle;rounded=0;orthogonalLoop=1;jettySize=auto;html=1;" edge="1" parent="1" source="j6mt6SIDiqW9d804oy0L-156" target="j6mt6SIDiqW9d804oy0L-159">
          <mxGeometry relative="1" as="geometry" />
        </mxCell>
        <mxCell id="j6mt6SIDiqW9d804oy0L-156" value="getPresa ()" style="shape=parallelogram;perimeter=parallelogramPerimeter;whiteSpace=wrap;html=1;fixedSize=1;" vertex="1" parent="1">
          <mxGeometry x="1450" y="260" width="120" height="60" as="geometry" />
        </mxCell>
        <mxCell id="j6mt6SIDiqW9d804oy0L-165" value="" style="edgeStyle=orthogonalEdgeStyle;rounded=0;orthogonalLoop=1;jettySize=auto;html=1;" edge="1" parent="1" source="j6mt6SIDiqW9d804oy0L-159" target="j6mt6SIDiqW9d804oy0L-164">
          <mxGeometry relative="1" as="geometry" />
        </mxCell>
        <mxCell id="j6mt6SIDiqW9d804oy0L-166" value="false" style="edgeLabel;html=1;align=center;verticalAlign=middle;resizable=0;points=[];" vertex="1" connectable="0" parent="j6mt6SIDiqW9d804oy0L-165">
          <mxGeometry x="0.0702" y="-3" relative="1" as="geometry">
            <mxPoint x="1" as="offset" />
          </mxGeometry>
        </mxCell>
        <mxCell id="j6mt6SIDiqW9d804oy0L-168" style="edgeStyle=orthogonalEdgeStyle;rounded=0;orthogonalLoop=1;jettySize=auto;html=1;entryX=0.5;entryY=0;entryDx=0;entryDy=0;" edge="1" parent="1" source="j6mt6SIDiqW9d804oy0L-159" target="j6mt6SIDiqW9d804oy0L-144">
          <mxGeometry relative="1" as="geometry" />
        </mxCell>
        <mxCell id="j6mt6SIDiqW9d804oy0L-171" value="true" style="edgeLabel;html=1;align=center;verticalAlign=middle;resizable=0;points=[];" vertex="1" connectable="0" parent="j6mt6SIDiqW9d804oy0L-168">
          <mxGeometry x="-0.7816" y="-1" relative="1" as="geometry">
            <mxPoint as="offset" />
          </mxGeometry>
        </mxCell>
        <mxCell id="j6mt6SIDiqW9d804oy0L-159" value="getPresa ()" style="rhombus;whiteSpace=wrap;html=1;" vertex="1" parent="1">
          <mxGeometry x="1470" y="390" width="80" height="80" as="geometry" />
        </mxCell>
        <mxCell id="j6mt6SIDiqW9d804oy0L-164" value="cazar ()" style="whiteSpace=wrap;html=1;" vertex="1" parent="1">
          <mxGeometry x="1290" y="400" width="120" height="60" as="geometry" />
        </mxCell>
        <mxCell id="j6mt6SIDiqW9d804oy0L-167" style="edgeStyle=orthogonalEdgeStyle;rounded=0;orthogonalLoop=1;jettySize=auto;html=1;entryX=0.671;entryY=0.009;entryDx=0;entryDy=0;entryPerimeter=0;" edge="1" parent="1" source="j6mt6SIDiqW9d804oy0L-164" target="j6mt6SIDiqW9d804oy0L-142">
          <mxGeometry relative="1" as="geometry" />
        </mxCell>
      </root>
    </mxGraphModel>
  </diagram>
</mxfile>
